<?xml version="1.0" encoding="UTF-8"?>
<svg xmlns="http://www.w3.org/2000/svg" viewBox="0 0 1200 1600" width="1200" height="1600">
  <defs>
    <!-- Gradient backgrounds -->
    <linearGradient id="bgGradient" x1="0%" y1="0%" x2="100%" y2="100%">
      <stop offset="0%" style="stop-color:#0f0c29"/>
      <stop offset="50%" style="stop-color:#302b63"/>
      <stop offset="100%" style="stop-color:#24243e"/>
    </linearGradient>
    <linearGradient id="goldGradient" x1="0%" y1="0%" x2="100%" y2="0%">
      <stop offset="0%" style="stop-color:#f7971e"/>
      <stop offset="100%" style="stop-color:#ffd200"/>
    </linearGradient>
    <linearGradient id="blueGradient" x1="0%" y1="0%" x2="100%" y2="0%">
      <stop offset="0%" style="stop-color:#667eea"/>
      <stop offset="100%" style="stop-color:#764ba2"/>
    </linearGradient>
    <linearGradient id="greenGradient" x1="0%" y1="0%" x2="100%" y2="0%">
      <stop offset="0%" style="stop-color:#11998e"/>
      <stop offset="100%" style="stop-color:#38ef7d"/>
    </linearGradient>
    <linearGradient id="pinkGradient" x1="0%" y1="0%" x2="100%" y2="0%">
      <stop offset="0%" style="stop-color:#ee0979"/>
      <stop offset="100%" style="stop-color:#ff6a00"/>
    </linearGradient>
    <linearGradient id="cyanGradient" x1="0%" y1="0%" x2="100%" y2="0%">
      <stop offset="0%" style="stop-color:#00c6fb"/>
      <stop offset="100%" style="stop-color:#005bea"/>
    </linearGradient>
    <linearGradient id="redGradient" x1="0%" y1="0%" x2="100%" y2="0%">
      <stop offset="0%" style="stop-color:#f85032"/>
      <stop offset="100%" style="stop-color:#e73827"/>
    </linearGradient>
    <!-- Glow filter -->
    <filter id="glow" x="-50%" y="-50%" width="200%" height="200%">
      <feGaussianBlur stdDeviation="3" result="coloredBlur"/>
      <feMerge>
        <feMergeNode in="coloredBlur"/>
        <feMergeNode in="SourceGraphic"/>
      </feMerge>
    </filter>
    <filter id="softGlow" x="-20%" y="-20%" width="140%" height="140%">
      <feGaussianBlur stdDeviation="2" result="coloredBlur"/>
      <feMerge>
        <feMergeNode in="coloredBlur"/>
        <feMergeNode in="SourceGraphic"/>
      </feMerge>
    </filter>
  </defs>

  <!-- Background -->
  <rect width="1200" height="1600" fill="url(#bgGradient)"/>

  <!-- Decorative circles -->
  <circle cx="100" cy="200" r="150" fill="#667eea" opacity="0.1"/>
  <circle cx="1100" cy="400" r="200" fill="#764ba2" opacity="0.1"/>
  <circle cx="150" cy="1400" r="180" fill="#38ef7d" opacity="0.08"/>
  <circle cx="1050" cy="1200" r="120" fill="#ffd200" opacity="0.1"/>

  <!-- Header Section -->
  <text x="600" y="70" font-family="Arial, sans-serif" font-size="42" font-weight="bold" fill="url(#goldGradient)" text-anchor="middle" filter="url(#glow)">ALEXANDRE BERRICHE</text>
  <text x="600" y="110" font-family="Arial, sans-serif" font-size="20" fill="#a0a0c0" text-anchor="middle">Founder &amp; Executive Chairman at Fleet | Super Angel Investor</text>

  <!-- Sequoia Scout Badge -->
  <rect x="450" y="130" width="300" height="35" rx="17" fill="url(#redGradient)" opacity="0.9"/>
  <text x="600" y="154" font-family="Arial, sans-serif" font-size="14" font-weight="bold" fill="white" text-anchor="middle">SEQUOIA CAPITAL SCOUT</text>

  <!-- Key Stats Section -->
  <rect x="50" y="185" width="1100" height="100" rx="15" fill="rgba(255,255,255,0.05)" stroke="rgba(255,255,255,0.1)" stroke-width="1"/>

  <!-- Stat 1 -->
  <text x="170" y="230" font-family="Arial, sans-serif" font-size="48" font-weight="bold" fill="url(#goldGradient)" text-anchor="middle" filter="url(#softGlow)">80+</text>
  <text x="170" y="260" font-family="Arial, sans-serif" font-size="14" fill="#a0a0c0" text-anchor="middle">INVESTMENTS</text>

  <!-- Stat 2 -->
  <text x="410" y="230" font-family="Arial, sans-serif" font-size="48" font-weight="bold" fill="url(#greenGradient)" text-anchor="middle" filter="url(#softGlow)">#1</text>
  <text x="410" y="260" font-family="Arial, sans-serif" font-size="14" fill="#a0a0c0" text-anchor="middle">SIFTED AI 100 INVESTOR</text>

  <!-- Stat 3 -->
  <text x="650" y="230" font-family="Arial, sans-serif" font-size="48" font-weight="bold" fill="url(#pinkGradient)" text-anchor="middle" filter="url(#softGlow)">100x+</text>
  <text x="650" y="260" font-family="Arial, sans-serif" font-size="14" fill="#a0a0c0" text-anchor="middle">RETURN ON LOVABLE</text>

  <!-- Stat 4 -->
  <text x="890" y="230" font-family="Arial, sans-serif" font-size="48" font-weight="bold" fill="url(#cyanGradient)" text-anchor="middle" filter="url(#softGlow)">12+</text>
  <text x="890" y="260" font-family="Arial, sans-serif" font-size="14" fill="#a0a0c0" text-anchor="middle">LP FUND POSITIONS</text>

  <!-- Stat 5 -->
  <text x="1080" y="230" font-family="Arial, sans-serif" font-size="48" font-weight="bold" fill="url(#blueGradient)" text-anchor="middle" filter="url(#softGlow)">5+</text>
  <text x="1080" y="260" font-family="Arial, sans-serif" font-size="14" fill="#a0a0c0" text-anchor="middle">SUCCESSFUL EXITS</text>

  <!-- FLAGSHIP INVESTMENT - Lovable -->
  <rect x="50" y="310" width="1100" height="120" rx="15" fill="rgba(247,151,30,0.15)" stroke="url(#goldGradient)" stroke-width="2"/>
  <text x="100" y="355" font-family="Arial, sans-serif" font-size="14" font-weight="bold" fill="#ffd200">FLAGSHIP INVESTMENT</text>
  <text x="100" y="395" font-family="Arial, sans-serif" font-size="36" font-weight="bold" fill="white">Lovable</text>
  <text x="280" y="395" font-family="Arial, sans-serif" font-size="18" fill="#a0a0c0">AI "Vibe Coding" Platform</text>
  <rect x="850" y="345" width="250" height="60" rx="10" fill="url(#goldGradient)"/>
  <text x="975" y="370" font-family="Arial, sans-serif" font-size="14" fill="#0f0c29" text-anchor="middle" font-weight="bold">PRE-SEED TO $5B VALUATION</text>
  <text x="975" y="392" font-family="Arial, sans-serif" font-size="20" fill="#0f0c29" text-anchor="middle" font-weight="bold">100x+ RETURN</text>

  <!-- LATE STAGE / BLUE CHIPS Section -->
  <text x="600" y="475" font-family="Arial, sans-serif" font-size="24" font-weight="bold" fill="url(#cyanGradient)" text-anchor="middle" filter="url(#softGlow)">LATE STAGE "BLUE CHIPS" INVESTMENTS</text>
  <text x="600" y="500" font-family="Arial, sans-serif" font-size="12" fill="#a0a0c0" text-anchor="middle">via Blue Chips Investment Community</text>

  <!-- Blue Chips Grid -->
  <g transform="translate(50, 520)">
    <!-- OpenAI -->
    <rect x="0" y="0" width="150" height="70" rx="10" fill="rgba(0,166,126,0.2)" stroke="#00a67e" stroke-width="1"/>
    <text x="75" y="35" font-family="Arial, sans-serif" font-size="18" font-weight="bold" fill="white" text-anchor="middle">OpenAI</text>
    <text x="75" y="55" font-family="Arial, sans-serif" font-size="11" fill="#00a67e" text-anchor="middle">Mar 2024</text>

    <!-- SpaceX -->
    <rect x="160" y="0" width="150" height="70" rx="10" fill="rgba(0,82,204,0.2)" stroke="#0052cc" stroke-width="1"/>
    <text x="235" y="35" font-family="Arial, sans-serif" font-size="18" font-weight="bold" fill="white" text-anchor="middle">SpaceX</text>
    <text x="235" y="55" font-family="Arial, sans-serif" font-size="11" fill="#4da6ff" text-anchor="middle">Dec 2024</text>

    <!-- Anthropic -->
    <rect x="320" y="0" width="150" height="70" rx="10" fill="rgba(204,119,34,0.2)" stroke="#cc7722" stroke-width="1"/>
    <text x="395" y="35" font-family="Arial, sans-serif" font-size="18" font-weight="bold" fill="white" text-anchor="middle">Anthropic</text>
    <text x="395" y="55" font-family="Arial, sans-serif" font-size="11" fill="#e6a64d" text-anchor="middle">Jul 2025</text>

    <!-- xAI -->
    <rect x="480" y="0" width="150" height="70" rx="10" fill="rgba(255,255,255,0.1)" stroke="#ffffff" stroke-width="1"/>
    <text x="555" y="35" font-family="Arial, sans-serif" font-size="18" font-weight="bold" fill="white" text-anchor="middle">xAI</text>
    <text x="555" y="55" font-family="Arial, sans-serif" font-size="11" fill="#a0a0c0" text-anchor="middle">May 2025</text>

    <!-- Stripe -->
    <rect x="640" y="0" width="150" height="70" rx="10" fill="rgba(99,91,255,0.2)" stroke="#635bff" stroke-width="1"/>
    <text x="715" y="35" font-family="Arial, sans-serif" font-size="18" font-weight="bold" fill="white" text-anchor="middle">Stripe</text>
    <text x="715" y="55" font-family="Arial, sans-serif" font-size="11" fill="#948bff" text-anchor="middle">Jul 2025</text>

    <!-- Databricks -->
    <rect x="800" y="0" width="150" height="70" rx="10" fill="rgba(255,59,48,0.2)" stroke="#ff3b30" stroke-width="1"/>
    <text x="875" y="35" font-family="Arial, sans-serif" font-size="18" font-weight="bold" fill="white" text-anchor="middle">Databricks</text>
    <text x="875" y="55" font-family="Arial, sans-serif" font-size="11" fill="#ff6b60" text-anchor="middle">Nov 2024</text>

    <!-- Anduril -->
    <rect x="960" y="0" width="140" height="70" rx="10" fill="rgba(128,128,128,0.2)" stroke="#808080" stroke-width="1"/>
    <text x="1030" y="35" font-family="Arial, sans-serif" font-size="18" font-weight="bold" fill="white" text-anchor="middle">Anduril</text>
    <text x="1030" y="55" font-family="Arial, sans-serif" font-size="11" fill="#a0a0c0" text-anchor="middle">Nov 2024</text>
  </g>

  <!-- AI INVESTMENTS Section -->
  <text x="350" y="650" font-family="Arial, sans-serif" font-size="20" font-weight="bold" fill="url(#pinkGradient)" text-anchor="middle">AI &amp; MACHINE LEARNING</text>
  <rect x="50" y="665" width="600" height="200" rx="12" fill="rgba(238,9,121,0.08)" stroke="rgba(238,9,121,0.3)" stroke-width="1"/>

  <g font-family="Arial, sans-serif" font-size="13" fill="#e0e0e0">
    <text x="75" y="695" font-weight="bold" fill="#ff6a00">Fyxer AI</text>
    <text x="75" y="715" font-weight="bold" fill="#ff6a00">Dust</text>
    <text x="75" y="735" font-weight="bold" fill="#ff6a00">Adaptive ML</text>
    <text x="75" y="755" font-weight="bold" fill="#ff6a00">H Company</text>
    <text x="75" y="775" font-weight="bold" fill="#ff6a00">Genesis AI</text>
    <text x="75" y="795" font-weight="bold" fill="#ff6a00">Artisan AI</text>
    <text x="75" y="815" font-weight="bold" fill="#ff6a00">Argmax</text>
    <text x="75" y="835" font-weight="bold" fill="#ff6a00">Prior Labs</text>

    <text x="200" y="695">Cortea AI</text>
    <text x="200" y="715">LogicStar AI</text>
    <text x="200" y="735">Comand AI</text>
    <text x="200" y="755">GetVocal AI</text>
    <text x="200" y="775">Sintra.ai</text>
    <text x="200" y="795">Artifact AI</text>
    <text x="200" y="815">Magentic</text>
    <text x="200" y="835">Arcads AI</text>

    <text x="325" y="695">Gladia</text>
    <text x="325" y="715">Chainlit</text>
    <text x="325" y="735">Argil</text>
    <text x="325" y="755">Quench.ai</text>
    <text x="325" y="775">Portia AI</text>
    <text x="325" y="795">Specular</text>
    <text x="325" y="815">Artificial Societies</text>
    <text x="325" y="835">Enzai</text>

    <text x="480" y="695">Clarifeye</text>
    <text x="480" y="715">EyeContact Dx</text>
    <text x="480" y="735">Grasp</text>
    <text x="480" y="755">Sibill</text>
    <text x="480" y="775">Skyfire</text>
    <text x="480" y="795">Boardy</text>
    <text x="480" y="815">Conveo</text>
  </g>

  <!-- FINTECH & B2B Section -->
  <text x="900" y="650" font-family="Arial, sans-serif" font-size="20" font-weight="bold" fill="url(#greenGradient)" text-anchor="middle">FINTECH &amp; B2B SaaS</text>
  <rect x="700" y="665" width="450" height="200" rx="12" fill="rgba(17,153,142,0.08)" stroke="rgba(56,239,125,0.3)" stroke-width="1"/>

  <g font-family="Arial, sans-serif" font-size="13" fill="#e0e0e0">
    <text x="725" y="695" font-weight="bold" fill="#38ef7d">Finary</text>
    <text x="725" y="715" font-weight="bold" fill="#38ef7d">Stoik</text>
    <text x="725" y="735" font-weight="bold" fill="#38ef7d">Payflows.io</text>
    <text x="725" y="755" font-weight="bold" fill="#38ef7d">Spiko</text>
    <text x="725" y="775" font-weight="bold" fill="#38ef7d">Atlar</text>
    <text x="725" y="795" font-weight="bold" fill="#38ef7d">Deblock</text>
    <text x="725" y="815" font-weight="bold" fill="#38ef7d">Hyperline</text>
    <text x="725" y="835" font-weight="bold" fill="#38ef7d">Flynt</text>

    <text x="850" y="695">DinMo</text>
    <text x="850" y="715">Omnea</text>
    <text x="850" y="735">Cypago</text>
    <text x="850" y="755">SECJUR</text>
    <text x="850" y="775">Elba</text>
    <text x="850" y="795">Plumery</text>
    <text x="850" y="815">Ravio</text>
    <text x="850" y="835">Klearly</text>

    <text x="975" y="695">Claap</text>
    <text x="975" y="715">Onepilot</text>
    <text x="975" y="735">SalesDesk</text>
    <text x="975" y="755">Synq</text>
    <text x="975" y="775">Defer</text>
    <text x="975" y="795">Twenty</text>
    <text x="975" y="815">Integral</text>
    <text x="975" y="835">Autone</text>
  </g>

  <!-- ROBOTICS & DEEPTECH Section -->
  <text x="200" y="905" font-family="Arial, sans-serif" font-size="20" font-weight="bold" fill="url(#blueGradient)" text-anchor="middle">ROBOTICS &amp; DEEPTECH</text>
  <rect x="50" y="920" width="300" height="160" rx="12" fill="rgba(102,126,234,0.08)" stroke="rgba(118,75,162,0.3)" stroke-width="1"/>

  <g font-family="Arial, sans-serif" font-size="13" fill="#e0e0e0">
    <text x="75" y="950" font-weight="bold" fill="#a78bfa">Robco</text>
    <text x="75" y="970" font-weight="bold" fill="#a78bfa">Cambridge Aerospace</text>
    <text x="75" y="990" font-weight="bold" fill="#a78bfa">Gama</text>
    <text x="75" y="1010" font-weight="bold" fill="#a78bfa">Ligo Biosciences</text>
    <text x="75" y="1030" font-weight="bold" fill="#a78bfa">Assert Labs</text>
    <text x="75" y="1050" font-weight="bold" fill="#a78bfa">Bastion Technologies</text>

    <text x="230" y="950">Tandem Health</text>
    <text x="230" y="970">Kinetix</text>
    <text x="230" y="990">Amperecloud</text>
    <text x="230" y="1010">Trawa</text>
    <text x="230" y="1030">Wildsense</text>
  </g>

  <!-- CONSUMER & GAMING Section -->
  <text x="550" y="905" font-family="Arial, sans-serif" font-size="20" font-weight="bold" fill="url(#goldGradient)" text-anchor="middle">CONSUMER &amp; GAMING</text>
  <rect x="400" y="920" width="300" height="160" rx="12" fill="rgba(247,151,30,0.08)" stroke="rgba(255,210,0,0.3)" stroke-width="1"/>

  <g font-family="Arial, sans-serif" font-size="13" fill="#e0e0e0">
    <text x="425" y="950" font-weight="bold" fill="#ffd200">Timeleft</text>
    <text x="425" y="970" font-weight="bold" fill="#ffd200">MentorShow</text>
    <text x="425" y="990" font-weight="bold" fill="#ffd200">Immortal Game</text>
    <text x="425" y="1010" font-weight="bold" fill="#ffd200">Nocturne Games</text>
    <text x="425" y="1030" font-weight="bold" fill="#ffd200">GDevelop</text>
    <text x="425" y="1050" font-weight="bold" fill="#ffd200">Jitter</text>

    <text x="560" y="950">Lumos Apps</text>
    <text x="560" y="970">Oneleaf</text>
    <text x="560" y="990">New Tales</text>
    <text x="560" y="1010">Mimo</text>
    <text x="560" y="1030">Gigi</text>
    <text x="560" y="1050">Animaj</text>
  </g>

  <!-- HR & WORKPLACE Section -->
  <text x="900" y="905" font-family="Arial, sans-serif" font-size="20" font-weight="bold" fill="url(#cyanGradient)" text-anchor="middle">HR &amp; WORKPLACE</text>
  <rect x="750" y="920" width="300" height="160" rx="12" fill="rgba(0,198,251,0.08)" stroke="rgba(0,91,234,0.3)" stroke-width="1"/>

  <g font-family="Arial, sans-serif" font-size="13" fill="#e0e0e0">
    <text x="775" y="950" font-weight="bold" fill="#00c6fb">Work With Island</text>
    <text x="775" y="970" font-weight="bold" fill="#00c6fb">Rollee</text>
    <text x="775" y="990" font-weight="bold" fill="#00c6fb">JOIN</text>
    <text x="775" y="1010" font-weight="bold" fill="#00c6fb">Muzzo</text>
    <text x="775" y="1030" font-weight="bold" fill="#00c6fb">Hopserve</text>

    <text x="920" y="950">Motto</text>
    <text x="920" y="970">Tengo</text>
    <text x="920" y="990">Skarlett</text>
    <text x="920" y="1010">Corgi</text>
    <text x="920" y="1030">Omada</text>
  </g>

  <!-- LP / FUND POSITIONS Section -->
  <text x="600" y="1130" font-family="Arial, sans-serif" font-size="22" font-weight="bold" fill="url(#blueGradient)" text-anchor="middle" filter="url(#softGlow)">LP POSITIONS IN LEADING FUNDS</text>
  <rect x="50" y="1150" width="1100" height="90" rx="12" fill="rgba(102,126,234,0.1)" stroke="rgba(118,75,162,0.4)" stroke-width="1"/>

  <g font-family="Arial, sans-serif" font-size="15" fill="white" font-weight="bold">
    <rect x="75" y="1170" width="130" height="50" rx="8" fill="rgba(255,255,255,0.1)"/>
    <text x="140" y="1200" text-anchor="middle">Kleiner Perkins</text>

    <rect x="220" y="1170" width="100" height="50" rx="8" fill="rgba(255,255,255,0.1)"/>
    <text x="270" y="1200" text-anchor="middle">Creandum</text>

    <rect x="335" y="1170" width="100" height="50" rx="8" fill="rgba(255,255,255,0.1)"/>
    <text x="385" y="1200" text-anchor="middle">Seedcamp</text>

    <rect x="450" y="1170" width="120" height="50" rx="8" fill="rgba(255,255,255,0.1)"/>
    <text x="510" y="1200" text-anchor="middle">Susa Ventures</text>

    <rect x="585" y="1170" width="130" height="50" rx="8" fill="rgba(255,255,255,0.1)"/>
    <text x="650" y="1200" text-anchor="middle">Visionaries Club</text>

    <rect x="730" y="1170" width="110" height="50" rx="8" fill="rgba(255,255,255,0.1)"/>
    <text x="785" y="1200" text-anchor="middle">Project Europe</text>

    <rect x="855" y="1170" width="80" height="50" rx="8" fill="rgba(255,255,255,0.1)"/>
    <text x="895" y="1200" text-anchor="middle">Cocoa</text>

    <rect x="950" y="1170" width="80" height="50" rx="8" fill="rgba(255,255,255,0.1)"/>
    <text x="990" y="1200" text-anchor="middle">Origins</text>

    <rect x="1045" y="1170" width="80" height="50" rx="8" fill="rgba(255,255,255,0.1)"/>
    <text x="1085" y="1200" text-anchor="middle">Rerail</text>
  </g>

  <!-- SUCCESSFUL EXITS Section -->
  <text x="600" y="1290" font-family="Arial, sans-serif" font-size="22" font-weight="bold" fill="url(#greenGradient)" text-anchor="middle" filter="url(#softGlow)">SUCCESSFUL EXITS</text>
  <rect x="50" y="1310" width="1100" height="80" rx="12" fill="rgba(56,239,125,0.1)" stroke="rgba(56,239,125,0.4)" stroke-width="1"/>

  <g font-family="Arial, sans-serif">
    <!-- Spotify -->
    <rect x="100" y="1325" width="140" height="50" rx="8" fill="#1DB954"/>
    <text x="170" y="1350" font-size="16" font-weight="bold" fill="white" text-anchor="middle">Spotify</text>
    <text x="170" y="1368" font-size="10" fill="white" text-anchor="middle">Pre-IPO Exit</text>

    <!-- Pinterest -->
    <rect x="260" y="1325" width="140" height="50" rx="8" fill="#E60023"/>
    <text x="330" y="1350" font-size="16" font-weight="bold" fill="white" text-anchor="middle">Pinterest</text>
    <text x="330" y="1368" font-size="10" fill="white" text-anchor="middle">Pre-IPO Exit</text>

    <!-- Okarito -->
    <rect x="420" y="1325" width="140" height="50" rx="8" fill="#6366f1"/>
    <text x="490" y="1350" font-size="16" font-weight="bold" fill="white" text-anchor="middle">Okarito</text>
    <text x="490" y="1368" font-size="10" fill="white" text-anchor="middle">Acquired by Swile</text>

    <!-- Accountable -->
    <rect x="580" y="1325" width="140" height="50" rx="8" fill="#3b82f6"/>
    <text x="650" y="1350" font-size="16" font-weight="bold" fill="white" text-anchor="middle">Accountable</text>
    <text x="650" y="1368" font-size="10" fill="white" text-anchor="middle">Acquired by Visma</text>

    <!-- Circular -->
    <rect x="740" y="1325" width="140" height="50" rx="8" fill="#10b981"/>
    <text x="810" y="1350" font-size="16" font-weight="bold" fill="white" text-anchor="middle">Circular</text>
    <text x="810" y="1368" font-size="10" fill="white" text-anchor="middle">Exited 2024</text>

    <!-- Convelio -->
    <rect x="900" y="1325" width="140" height="50" rx="8" fill="#8b5cf6"/>
    <text x="970" y="1350" font-size="16" font-weight="bold" fill="white" text-anchor="middle">Convelio</text>
    <text x="970" y="1368" font-size="10" fill="white" text-anchor="middle">Board Director Exit</text>
  </g>

  <!-- Blue Chips Initiative -->
  <rect x="50" y="1420" width="1100" height="70" rx="12" fill="rgba(0,198,251,0.1)" stroke="rgba(0,198,251,0.4)" stroke-width="1"/>
  <text x="600" y="1450" font-family="Arial, sans-serif" font-size="16" font-weight="bold" fill="#00c6fb" text-anchor="middle">BLUE CHIPS BY ROUNDTABLE</text>
  <text x="600" y="1475" font-family="Arial, sans-serif" font-size="13" fill="#a0a0c0" text-anchor="middle">Founding Member | Investment Community for Late-Stage Opportunities in OpenAI, SpaceX, Stripe, Anduril, Databricks &amp; more</text>

  <!-- Footer -->
  <text x="600" y="1530" font-family="Arial, sans-serif" font-size="12" fill="#606080" text-anchor="middle">Data sourced from LinkedIn profile | Investment activity from 2019-2026</text>
  <text x="600" y="1550" font-family="Arial, sans-serif" font-size="14" fill="#a0a0c0" text-anchor="middle">linkedin.com/in/berriche</text>

  <!-- Fleet Company Badge -->
  <rect x="50" y="1565" width="1100" height="25" rx="5" fill="rgba(255,255,255,0.03)"/>
  <text x="600" y="1583" font-family="Arial, sans-serif" font-size="11" fill="#505070" text-anchor="middle">Co-Founder &amp; Executive Chairman at Fleet | Bootstrapped to €100M Valuation</text>
</svg>